<svg width="79" height="77" viewBox="0 0 79 77" fill="none" xmlns="http://www.w3.org/2000/svg">
<g id="bi:geo-alt-fill" clip-path="url(#clip0_1_9195)">
<path id="Vector" d="M39.3281 76.6029C39.3281 76.6029 68.4491 49.5579 68.4491 29.0386C68.4491 21.4697 65.381 14.2108 59.9197 8.85876C54.4585 3.50674 47.0514 0.5 39.3281 0.5C31.6047 0.5 24.1976 3.50674 18.7364 8.85876C13.2751 14.2108 10.207 21.4697 10.207 29.0386C10.207 49.5579 39.3281 76.6029 39.3281 76.6029ZM39.3281 43.3079C35.4664 43.3079 31.7628 41.8045 29.0322 39.1285C26.3016 36.4525 24.7675 32.8231 24.7675 29.0386C24.7675 25.2541 26.3016 21.6247 29.0322 18.9487C31.7628 16.2727 35.4664 14.7693 39.3281 14.7693C43.1897 14.7693 46.8933 16.2727 49.6239 18.9487C52.3545 21.6247 53.8886 25.2541 53.8886 29.0386C53.8886 32.8231 52.3545 36.4525 49.6239 39.1285C46.8933 41.8045 43.1897 43.3079 39.3281 43.3079Z" fill="#092744"/>
</g>
<defs>
<clipPath id="clip0_1_9195">
<rect width="77.6561" height="76.1029" fill="white" transform="translate(0.5 0.5)"/>
</clipPath>
</defs>
</svg>
