<svg width="83" height="89" viewBox="0 0 83 89" fill="none" xmlns="http://www.w3.org/2000/svg">
<g id="mdi:ice-cream">
<path id="Vector" d="M59.9555 22.6206C59.1061 12.2733 51.0881 4.15625 41.2695 4.15625C31.4508 4.15625 23.4328 12.2733 22.5835 22.6206C17.7931 23.4615 14.0898 27.9222 14.0898 33.4067C14.0898 39.4762 18.6424 44.3756 24.2822 44.3756L41.2695 80.9387L58.2567 44.3756C63.8965 44.3756 68.4491 39.4762 68.4491 33.4067C68.4491 27.9222 64.7459 23.4615 59.9555 22.6206ZM41.2695 64.595L30.7034 41.8528C30.9072 41.67 31.0771 41.4871 31.3489 41.3043C34.3229 43.3079 37.7608 44.3705 41.2695 44.3705C44.7782 44.3705 48.216 43.3079 51.19 41.3043C51.4618 41.4871 51.6317 41.67 51.8355 41.8528L41.2695 64.595Z" fill="#092744"/>
</g>
</svg>
