<svg width="105" height="77" viewBox="0 0 105 77" fill="none" xmlns="http://www.w3.org/2000/svg">
<path id="Vector" d="M7.0181 8.92586C8.44394 8.92586 9.58121 9.36411 10.4299 10.2406C11.2786 11.1171 12.0085 12.0813 12.6196 13.1331C13.2307 14.1849 13.8587 15.149 14.5037 16.0255C15.1488 16.902 15.9126 17.3403 16.7953 17.3403C18.4248 17.3403 19.8676 16.9239 21.1237 16.0913C22.3798 15.2586 23.534 14.2287 24.5864 13.0016C25.6388 11.7745 26.6743 10.4159 27.6927 8.92586C28.7112 7.4358 29.7975 6.09914 30.9518 4.91586C32.106 3.73258 33.3621 2.68078 34.72 1.76045C36.078 0.840121 37.7075 0.423782 39.6086 0.511433C40.8308 0.511433 42.019 0.752471 43.1732 1.23455C44.3275 1.71662 45.3968 2.41783 46.3813 3.33815L46.4323 3.46963C47.0094 3.99553 47.5526 4.52143 48.0618 5.04733C48.571 5.57323 49.1312 6.12105 49.7422 6.69077C50.1496 6.16487 50.574 5.70471 51.0153 5.31028C51.4566 4.91586 51.9998 4.71864 52.6448 4.71864C53.5614 4.71864 54.3253 5.13498 54.9364 5.96766C55.5474 6.80034 55.8699 7.80832 55.9039 8.99159C55.9039 9.8681 55.6832 10.7008 55.2419 11.4896C56.3282 12.3661 57.4146 13.1988 58.5009 13.9877C59.5873 14.7765 60.6736 15.5873 61.76 16.42C62.3032 15.6749 62.8803 14.9518 63.4914 14.2506C64.1024 13.5494 64.8323 13.1769 65.681 13.1331C66.5637 13.1331 67.3275 13.5494 67.9726 14.3821C68.6176 15.2148 68.9401 16.2008 68.9401 17.3403C68.9401 18.0415 68.8382 18.6112 68.6346 19.0495C68.4309 19.4877 68.1763 19.9698 67.8707 20.4957C69.025 21.2407 70.1792 21.9638 71.3335 22.665C72.4877 23.3662 73.6759 24.0455 74.898 24.7029C75.4412 24.0017 76.0014 23.3005 76.5785 22.5993C77.1556 21.8981 77.8685 21.5475 78.7172 21.5475C79.5999 21.5475 80.3637 21.9638 81.0088 22.7965C81.6538 23.6292 81.9763 24.6152 81.9763 25.7547C81.9763 26.675 81.7726 27.4858 81.3652 28.187C83.504 29.3264 85.6597 30.3783 87.8324 31.3424C90.0051 32.3066 92.1948 33.3145 94.4014 34.3663C95.5557 34.9361 96.7439 35.6592 97.966 36.5357C99.1882 37.4122 100.308 38.4859 101.327 39.7568C102.345 41.0278 103.177 42.4082 103.822 43.8983C104.467 45.3884 104.79 47.0537 104.79 48.8944V50.998C104.79 53.4522 104.331 55.6653 103.415 57.6375C102.498 59.6096 101.31 61.3626 99.8502 62.8965C98.3904 64.4304 96.8288 65.7889 95.1653 66.9722C93.5018 68.1555 91.8723 69.0977 90.2767 69.799C85.3542 72.2093 80.2619 73.8747 74.9999 74.795C69.7379 75.7153 64.4589 76.1974 59.1629 76.2412H52.6448C51.219 76.2412 49.9459 76.0221 48.8256 75.5839C47.7053 75.1456 46.636 74.6635 45.6175 74.1376C44.599 73.6117 43.6315 73.1297 42.7149 72.6914C41.7983 72.2532 40.7629 72.034 39.6086 72.034C38.692 72.034 37.8433 72.1655 37.0625 72.4285C36.2817 72.6914 35.4669 73.1077 34.6182 73.6775C33.3282 74.5101 32.0381 75.1456 30.7481 75.5839C29.458 76.0221 28.0661 76.2412 26.5724 76.2412H10.2772C8.91922 76.2412 7.64615 75.9126 6.45795 75.2552C5.26976 74.5978 4.23433 73.6994 3.35167 72.5599C2.46901 71.4205 1.77307 70.0838 1.26384 68.5499C0.754613 67.0161 0.5 65.3726 0.5 63.6196V17.3403C0.5 16.157 0.669742 15.0614 1.00923 14.0534C1.34871 13.0454 1.80702 12.1689 2.38414 11.4239C2.96126 10.6789 3.65721 10.0653 4.47197 9.58323C5.28673 9.10116 6.13544 8.88203 7.0181 8.92586ZM98.2716 48.8944C98.2716 48.1932 98.0509 47.5139 97.6096 46.8565C97.1682 46.1991 96.6081 45.5637 95.9291 44.9501C95.2501 44.3366 94.5882 43.8106 93.9431 43.3724C93.2981 42.9341 92.721 42.5835 92.2118 42.3206C89.5638 41.0058 86.9328 39.7568 84.3187 38.5735C81.7047 37.3903 79.0737 36.0974 76.4257 34.695L71.2316 41.3345C70.5866 42.1672 69.8228 42.5835 68.9401 42.5835C68.0574 42.5835 67.2936 42.1672 66.6486 41.3345C66.0035 40.5019 65.681 39.5158 65.681 38.3763C65.681 37.719 65.8338 37.0616 66.1393 36.4042C66.4449 35.7468 66.8353 35.0895 67.3106 34.4321C67.7858 33.7747 68.2441 33.1611 68.6855 32.5914C69.1268 32.0217 69.5512 31.5177 69.9585 31.0795C68.7703 30.3783 67.5991 29.677 66.4449 28.9758C65.2906 28.2746 64.1364 27.5296 62.9821 26.7408L58.1954 32.9201C57.5504 33.7528 56.7865 34.1691 55.9039 34.1691C55.0212 34.1691 54.2574 33.7528 53.6124 32.9201C52.9673 32.0874 52.6448 31.1014 52.6448 29.9619C52.6448 28.8225 52.9673 27.8364 53.6124 27.0037L56.9733 22.5993C55.8869 21.8104 54.8175 20.9997 53.7651 20.167C52.7127 19.3343 51.6434 18.4797 50.557 17.6032L45.1592 24.5057C44.5142 25.3384 43.7503 25.7547 42.8677 25.7547C41.985 25.7547 41.2212 25.3384 40.5762 24.5057C39.9311 23.673 39.6086 22.6869 39.6086 21.5475C39.6086 20.408 39.9311 19.422 40.5762 18.5893L45.1083 12.7386C44.2935 11.906 43.4618 11.0733 42.6131 10.2406C41.7644 9.40793 40.7629 8.96968 39.6086 8.92586C38.6581 8.92586 37.7584 9.18881 36.9097 9.71471C36.061 10.2406 35.3141 10.9418 34.6691 11.8183H34.6182C33.2603 13.5713 31.9702 15.2805 30.7481 16.9459C29.5259 18.6112 28.2359 20.1013 26.878 21.416C25.52 22.7308 24.0433 23.7826 22.4477 24.5714C20.8521 25.3603 18.968 25.7547 16.7953 25.7547C15.7089 25.7547 14.7244 25.5575 13.8417 25.1631C12.9591 24.7686 12.1613 24.2208 11.4484 23.5196C10.7355 22.8184 10.0395 22.0077 9.36055 21.0873C8.68158 20.167 8.07051 19.1809 7.52733 18.1291C7.32364 17.7785 7.1539 17.5375 7.0181 17.406V50.998H98.2716V48.8944ZM26.5724 67.8268C27.6927 67.8268 28.7112 67.6077 29.6278 67.1694C30.5444 66.7312 31.5119 66.2491 32.5304 65.7232C33.5488 65.1973 34.6012 64.7152 35.6876 64.277C36.7739 63.8387 38.0809 63.6196 39.6086 63.6196C41.1024 63.6196 42.4773 63.8387 43.7334 64.277C44.9895 64.7152 46.2965 65.3507 47.6544 66.1834C48.8426 66.9284 49.9799 67.4105 51.0662 67.6296C52.1526 67.8487 53.3577 67.9583 54.6817 67.9583C57.6353 67.9583 60.7585 67.8706 64.0515 67.6953C67.3445 67.52 70.6545 67.1256 73.9814 66.5121C77.3084 65.8985 80.5335 65.0439 83.6567 63.9483C86.78 62.8527 89.6487 61.3407 92.2627 59.4124H7.0181V63.6196C7.0181 64.7591 7.34061 65.7451 7.98564 66.5778C8.63066 67.4105 9.3945 67.8268 10.2772 67.8268H26.5724Z" fill="#092744"/>
</svg>
