<svg width="52" height="52" viewBox="0 0 52 52" fill="none" xmlns="http://www.w3.org/2000/svg">
<g id="mdi:telephone" clip-path="url(#clip0_1_9252)">
<path id="Vector" d="M18.3979 21.1721C19.0399 26.4251 21.3509 31.3811 24.9623 35.2495L29.6619 33.0581C30.26 32.7792 30.9164 32.8762 31.4019 33.248C32.9451 34.4659 34.7105 35.4632 36.6681 36.1757C37.0835 36.3269 37.4218 36.6369 37.6086 37.0375C37.7954 37.4381 37.8155 37.8965 37.6643 38.3119L35.6692 43.7934C35.518 44.2088 35.208 44.5471 34.8074 44.7339C34.4068 44.9207 33.9483 44.9407 33.533 44.7896C26.4717 42.2195 20.7206 36.9495 17.5448 30.1391C14.3691 23.3287 14.0288 15.5356 16.5989 8.47436C16.7501 8.05899 17.0601 7.72069 17.4607 7.53388C17.8613 7.34707 18.3197 7.32705 18.7351 7.47824L24.2166 9.47335C24.632 9.62454 24.9703 9.93453 25.1571 10.3351C25.3439 10.7358 25.3639 11.1942 25.2128 11.6095C24.5002 13.5672 24.1294 15.5606 24.0704 17.5256C24.0432 18.1365 23.6956 18.7017 23.0975 18.9806L18.3979 21.1721Z" fill="black"/>
</g>
<defs>
<clipPath id="clip0_1_9252">
<rect width="40" height="40" fill="white" transform="translate(14.1807 0.5) rotate(20)"/>
</clipPath>
</defs>
</svg>
